# xmcd
#
# Track frame offsets:
#	150
#	20586
#	41174
#	60847
#	77656
#	99912
#	122024
#	147593
#	163285
#	179404
#	194637
#	207875
#	225580
#	242420
#	257218
#	274213
#	293447
#	313248
#
# Disc length: 4440 seconds
#
# Revision: 0
# Processed by: cddbd v1.5.2PL0 Copyright (c) Steve Scherf et al.
# Submitted via: audiograbber 1.83.01
#
DISCID=05115612
DTITLE=Classic Rock - Marc Ysaye - 80's [CD 5)
DYEAR=2012
DGENRE=Rock
TTITLE0=Simple Minds - Someone Somewhere In Summertime
TTITLE1=The Smithereens - A Girl Like You
TTITLE2=Killing Joke - Love Like Blood
TTITLE3=Soulsister - The Way To Your Heart
TTITLE4=The Church - Under The Milky Way
TTITLE5=Roxy Music - Jealous Guy
TTITLE6=Talk Talk - Such A Shame
TTITLE7=Kate Bush - Baboushka
TTITLE8=Martha And The Muffins - Echo Beach
TTITLE9=Duran Duran - Girls On Film
TTITLE10=Yazoo - Don't Go
TTITLE11=Kim Wilde - Cambodia
TTITLE12=Depeche Mode - Strangelove
TTITLE13=Nacht Und Nebel - Beats Of Love
TTITLE14=The Human League - Human
TTITLE15=Julian Lennon - Valotte
TTITLE16=Robert Palmer - Addicted To Love
TTITLE17=TC Matic - Putain Putain
EXTD=
EXTT0=
EXTT1=
EXTT2=
EXTT3=
EXTT4=
EXTT5=
EXTT6=
EXTT7=
EXTT8=
EXTT9=
EXTT10=
EXTT11=
EXTT12=
EXTT13=
EXTT14=
EXTT15=
EXTT16=
EXTT17=
PLAYORDER=
